<svg xmlns="http://www.w3.org/2000/svg" xmlns:xlink="http://www.w3.org/1999/xlink" version="1.1" width="256" height="256" viewBox="0 0 256 256" xml:space="preserve">

<defs>
</defs>
<g style="stroke: none; stroke-width: 0; stroke-dasharray: none; stroke-linecap: butt; stroke-linejoin: miter; stroke-miterlimit: 10; fill: none; fill-rule: nonzero; opacity: 1;" transform="translate(1.4065934065934016 1.4065934065934016) scale(2.81 2.81)" >
	<path d="M 67.072 23.395 h -13.98 c -0.553 0 -1 -0.448 -1 -1 V 2 H 37.909 v 5.856 c 0 0.552 -0.448 1 -1 1 s -1 -0.448 -1 -1 V 1 c 0 -0.552 0.448 -1 1 -1 h 16.183 c 0.553 0 1 0.448 1 1 v 20.395 h 12.98 c 0.553 0 1 0.448 1 1 S 67.625 23.395 67.072 23.395 z" style="stroke: none; stroke-width: 1; stroke-dasharray: none; stroke-linecap: butt; stroke-linejoin: miter; stroke-miterlimit: 10; fill: rgb(157,168,90); fill-rule: nonzero; opacity: 1;" transform=" matrix(1 0 0 1 0 0) " stroke-linecap="round" />
	<path d="M 53.092 42.996 c -0.553 0 -1 -0.448 -1 -1 v -3.418 c 0 -0.552 0.447 -1 1 -1 h 23.033 V 23.395 h -0.548 c -0.553 0 -1 -0.448 -1 -1 s 0.447 -1 1 -1 h 1.548 c 0.553 0 1 0.448 1 1 v 16.183 c 0 0.552 -0.447 1 -1 1 H 54.092 v 2.418 C 54.092 42.548 53.645 42.996 53.092 42.996 z" style="stroke: none; stroke-width: 1; stroke-dasharray: none; stroke-linecap: butt; stroke-linejoin: miter; stroke-miterlimit: 10; fill: rgb(157,168,90); fill-rule: nonzero; opacity: 1;" transform=" matrix(1 0 0 1 0 0) " stroke-linecap="round" />
	<path d="M 53.092 90 H 36.909 c -0.552 0 -1 -0.447 -1 -1 V 39.578 H 32.16 c -0.552 0 -1 -0.448 -1 -1 s 0.448 -1 1 -1 h 4.749 c 0.552 0 1 0.448 1 1 V 88 h 14.183 V 55.239 c 0 -0.553 0.447 -1 1 -1 s 1 0.447 1 1 V 89 C 54.092 89.553 53.645 90 53.092 90 z" style="stroke: none; stroke-width: 1; stroke-dasharray: none; stroke-linecap: butt; stroke-linejoin: miter; stroke-miterlimit: 10; fill: rgb(157,168,90); fill-rule: nonzero; opacity: 1;" transform=" matrix(1 0 0 1 0 0) " stroke-linecap="round" />
	<path d="M 21.451 39.578 h -8.576 c -0.552 0 -1 -0.448 -1 -1 V 22.395 c 0 -0.552 0.448 -1 1 -1 h 23.034 v -2.916 c 0 -0.552 0.448 -1 1 -1 s 1 0.448 1 1 v 3.916 c 0 0.552 -0.448 1 -1 1 H 13.875 v 14.183 h 7.576 c 0.552 0 1 0.448 1 1 S 22.003 39.578 21.451 39.578 z" style="stroke: none; stroke-width: 1; stroke-dasharray: none; stroke-linecap: butt; stroke-linejoin: miter; stroke-miterlimit: 10; fill: rgb(157,168,90); fill-rule: nonzero; opacity: 1;" transform=" matrix(1 0 0 1 0 0) " stroke-linecap="round" />
	<path d="M 15.514 7.062 c -0.091 0 -0.182 -0.035 -0.252 -0.104 l -1.63 -1.63 c -0.516 -0.516 -1.161 -0.892 -1.865 -1.086 c -0.359 -0.099 -0.731 -0.151 -1.105 -0.154 c -1.156 -0.023 -2.236 0.43 -3.047 1.241 C 7.305 5.638 7.047 5.99 6.848 6.376 c -0.09 0.175 -0.304 0.243 -0.48 0.153 c -0.175 -0.09 -0.243 -0.305 -0.153 -0.48 C 6.449 5.598 6.75 5.186 7.111 4.825 c 0.936 -0.936 2.181 -1.449 3.51 -1.449 c 0.015 0 0.031 0 0.046 0 c 0.436 0.004 0.87 0.065 1.288 0.18 c 0.822 0.227 1.576 0.666 2.179 1.269 l 1.379 1.378 l 0.882 -0.882 c 0.139 -0.139 0.364 -0.139 0.503 0 c 0.139 0.139 0.139 0.364 0 0.503 l -1.134 1.134 C 15.696 7.028 15.605 7.062 15.514 7.062 z" style="stroke: none; stroke-width: 1; stroke-dasharray: none; stroke-linecap: butt; stroke-linejoin: miter; stroke-miterlimit: 10; fill: rgb(157,168,90); fill-rule: nonzero; opacity: 1;" transform=" matrix(2.81 0 0 2.81 1.4065934065934016 1.4065934065934016) " stroke-linecap="round" />
	<path d="M 11.139 15.728 c -0.091 0 -0.182 -0.035 -0.252 -0.104 l -3.776 -3.776 c -0.78 -0.78 -1.267 -1.773 -1.408 -2.872 C 5.678 8.781 5.816 8.603 6.011 8.578 c 0.196 -0.027 0.373 0.113 0.398 0.308 c 0.121 0.941 0.538 1.792 1.205 2.46 l 3.776 3.776 c 0.139 0.139 0.139 0.364 0 0.503 C 11.321 15.694 11.23 15.728 11.139 15.728 z" style="stroke: none; stroke-width: 1; stroke-dasharray: none; stroke-linecap: butt; stroke-linejoin: miter; stroke-miterlimit: 10; fill: rgb(157,168,90); fill-rule: nonzero; opacity: 1;" transform=" matrix(2.81 0 0 2.81 1.4065934065934016 1.4065934065934016) " stroke-linecap="round" />
	<path d="M 15.514 20.104 L 15.514 20.104 c -0.094 0 -0.185 -0.038 -0.252 -0.104 l -1.463 -1.463 c -0.139 -0.139 -0.139 -0.364 0 -0.503 c 0.139 -0.139 0.364 -0.139 0.503 0 l 1.211 1.211 l 4.697 -4.697 c 0.139 -0.139 0.364 -0.139 0.503 0 c 0.139 0.139 0.139 0.364 0 0.503 l -4.948 4.949 C 15.699 20.066 15.608 20.104 15.514 20.104 z" style="stroke: none; stroke-width: 1; stroke-dasharray: none; stroke-linecap: butt; stroke-linejoin: miter; stroke-miterlimit: 10; fill: rgb(157,168,90); fill-rule: nonzero; opacity: 1;" transform=" matrix(2.81 0 0 2.81 1.4065934065934016 1.4065934065934016) " stroke-linecap="round" />
	<path d="M 23.229 12.388 c -0.091 0 -0.182 -0.035 -0.252 -0.104 c -0.139 -0.139 -0.139 -0.364 0 -0.503 l 0.435 -0.435 c 1.659 -1.659 1.659 -4.358 0 -6.017 c -0.82 -0.82 -1.906 -1.265 -3.086 -1.24 c -0.202 -0.008 -0.359 -0.153 -0.362 -0.349 c -0.003 -0.197 0.153 -0.359 0.35 -0.362 c 0.031 -0.001 0.062 -0.001 0.093 -0.001 c 1.329 0 2.572 0.512 3.509 1.449 c 1.936 1.936 1.936 5.087 0 7.024 l -0.435 0.435 C 23.411 12.353 23.32 12.388 23.229 12.388 z" style="stroke: none; stroke-width: 1; stroke-dasharray: none; stroke-linecap: butt; stroke-linejoin: miter; stroke-miterlimit: 10; fill: rgb(157,168,90); fill-rule: nonzero; opacity: 1;" transform=" matrix(2.81 0 0 2.81 1.4065934065934016 1.4065934065934016) " stroke-linecap="round" />
</g>
</svg>